Google Documentary 2010
=======================

A documentary covering the Google empire; which exposes its phenomenal
corporate growth and potentially monopolistic, intrusive nature.

Visit the gallery, if you dare (lol)!

 
http://www.scroogle.org/th/thumbs.html


Good quality XviD AVI, with MD5 file.

----------

General
Format                           : AVI
Format/Info                      : Audio Video Interleave
File size                        : 642 MiB
Duration                         : 42mn 36s
Overall bit rate                 : 2 106 Kbps

Video
Format                           : MPEG-4 Visual
Codec ID                         : XVID
Duration                         : 42mn 36s
Bit rate                         : 1 998 Kbps
Width                            : 720 pixels
Height                           : 480 pixels
Frame rate                       : 29.970 fps
Standard                         : NTSC
Scan type                        : Progressive
Stream size                      : 609 MiB (95%)
Writing library                  : XviD 1.2.1 (UTC 2008-12-04)

Audio
Format                           : MPEG Audio
Format version                   : Version 1
Format profile                   : Layer 3
Codec ID/Hint                    : MP3
Duration                         : 42mn 36s
Bit rate mode                    : Constant
Bit rate                         : 96.0 Kbps
Channel(s)                       : 1 channel
Sampling rate                    : 48.0 KHz
Stream size                      : 29.3 MiB (5%)

----------

Please seed as much as you can and remember that others depend upon you,
just as you depend upon them.

Distribute elsewhere, as much as you please.

Original seed will end at 2x.

----

GoogleDocumentary-avi.md5
GoogleDocumentary.avi
GoogleDocumentary.jpg
Readme.nfo

